<mxfile host="Electron" agent="Mozilla/5.0 (Windows NT 10.0; Win64; x64) AppleWebKit/537.36 (KHTML, like Gecko) draw.io/24.7.8 Chrome/128.0.6613.36 Electron/32.0.1 Safari/537.36" version="24.7.8">
  <diagram name="Page-1" id="AWQWdsOhxv5rxBuUBQEG">
    <mxGraphModel dx="781" dy="510" grid="1" gridSize="10" guides="1" tooltips="1" connect="1" arrows="1" fold="1" page="1" pageScale="1" pageWidth="827" pageHeight="1169" math="0" shadow="0">
      <root>
        <mxCell id="0" />
        <mxCell id="1" parent="0" />
        <mxCell id="DmDUVaoj2vSgji043pQU-1" value="Gérer des utilisateurs" style="ellipse;whiteSpace=wrap;html=1;" vertex="1" parent="1">
          <mxGeometry x="430" y="30" width="143" height="50" as="geometry" />
        </mxCell>
        <mxCell id="DmDUVaoj2vSgji043pQU-2" value="s&#39;authentifier" style="ellipse;whiteSpace=wrap;html=1;" vertex="1" parent="1">
          <mxGeometry x="863" y="120" width="186" height="50" as="geometry" />
        </mxCell>
        <mxCell id="DmDUVaoj2vSgji043pQU-3" value="Use" style="endArrow=open;endSize=12;dashed=1;html=1;rounded=0;exitX=0;exitY=0.5;exitDx=0;exitDy=0;entryX=1;entryY=0.5;entryDx=0;entryDy=0;" edge="1" parent="1" source="DmDUVaoj2vSgji043pQU-2" target="DmDUVaoj2vSgji043pQU-1">
          <mxGeometry x="-0.0278" y="-2" width="160" relative="1" as="geometry">
            <mxPoint x="320" y="270" as="sourcePoint" />
            <mxPoint x="480" y="270" as="targetPoint" />
            <Array as="points">
              <mxPoint x="760" y="55" />
            </Array>
            <mxPoint x="-1" as="offset" />
          </mxGeometry>
        </mxCell>
        <mxCell id="DmDUVaoj2vSgji043pQU-5" value="Ajouter&lt;span style=&quot;background-color: initial;&quot;&gt;&amp;nbsp;les domaines&amp;nbsp;&lt;/span&gt;" style="ellipse;whiteSpace=wrap;html=1;" vertex="1" parent="1">
          <mxGeometry x="443" y="140" width="140" height="40" as="geometry" />
        </mxCell>
        <mxCell id="DmDUVaoj2vSgji043pQU-6" value="Use" style="endArrow=open;endSize=12;dashed=1;html=1;rounded=0;exitX=0;exitY=1;exitDx=0;exitDy=0;entryX=1;entryY=0.5;entryDx=0;entryDy=0;" edge="1" parent="1" source="DmDUVaoj2vSgji043pQU-2" target="DmDUVaoj2vSgji043pQU-5">
          <mxGeometry width="160" relative="1" as="geometry">
            <mxPoint x="320" y="270" as="sourcePoint" />
            <mxPoint x="480" y="270" as="targetPoint" />
          </mxGeometry>
        </mxCell>
        <mxCell id="DmDUVaoj2vSgji043pQU-7" value="Ajouter , Modifier et supprimer les informations générales&lt;div&gt;&amp;nbsp;des facultés&lt;/div&gt;" style="ellipse;whiteSpace=wrap;html=1;" vertex="1" parent="1">
          <mxGeometry x="430" y="220" width="230" height="60" as="geometry" />
        </mxCell>
        <mxCell id="DmDUVaoj2vSgji043pQU-8" value="Use" style="endArrow=open;endSize=12;dashed=1;html=1;rounded=0;exitX=0.5;exitY=1;exitDx=0;exitDy=0;entryX=1;entryY=0.5;entryDx=0;entryDy=0;" edge="1" parent="1" source="DmDUVaoj2vSgji043pQU-2" target="DmDUVaoj2vSgji043pQU-7">
          <mxGeometry width="160" relative="1" as="geometry">
            <mxPoint x="660" y="120" as="sourcePoint" />
            <mxPoint x="510" y="260" as="targetPoint" />
            <Array as="points">
              <mxPoint x="810" y="250" />
            </Array>
          </mxGeometry>
        </mxCell>
        <mxCell id="DmDUVaoj2vSgji043pQU-9" value="Admin&lt;div&gt;&lt;br&gt;&lt;/div&gt;" style="shape=umlActor;verticalLabelPosition=bottom;verticalAlign=top;html=1;" vertex="1" parent="1">
          <mxGeometry x="180" y="70" width="30" height="60" as="geometry" />
        </mxCell>
        <mxCell id="DmDUVaoj2vSgji043pQU-12" value="" style="endArrow=open;endFill=1;endSize=12;html=1;rounded=0;exitX=1;exitY=0.3333333333333333;exitDx=0;exitDy=0;exitPerimeter=0;entryX=0.042;entryY=0.68;entryDx=0;entryDy=0;entryPerimeter=0;" edge="1" parent="1" source="DmDUVaoj2vSgji043pQU-9" target="DmDUVaoj2vSgji043pQU-1">
          <mxGeometry width="160" relative="1" as="geometry">
            <mxPoint x="160" y="54.5" as="sourcePoint" />
            <mxPoint x="320" y="54.5" as="targetPoint" />
          </mxGeometry>
        </mxCell>
        <mxCell id="DmDUVaoj2vSgji043pQU-14" value="" style="endArrow=open;endFill=1;endSize=12;html=1;rounded=0;exitX=0.5;exitY=0.5;exitDx=0;exitDy=0;exitPerimeter=0;entryX=0.093;entryY=0.225;entryDx=0;entryDy=0;entryPerimeter=0;" edge="1" parent="1" source="DmDUVaoj2vSgji043pQU-9" target="DmDUVaoj2vSgji043pQU-5">
          <mxGeometry width="160" relative="1" as="geometry">
            <mxPoint x="163" y="169.5" as="sourcePoint" />
            <mxPoint x="323" y="169.5" as="targetPoint" />
          </mxGeometry>
        </mxCell>
        <mxCell id="DmDUVaoj2vSgji043pQU-15" value="" style="endArrow=open;endFill=1;endSize=12;html=1;rounded=0;exitX=1;exitY=1;exitDx=0;exitDy=0;exitPerimeter=0;entryX=0.013;entryY=0.383;entryDx=0;entryDy=0;entryPerimeter=0;" edge="1" parent="1" source="DmDUVaoj2vSgji043pQU-9" target="DmDUVaoj2vSgji043pQU-7">
          <mxGeometry width="160" relative="1" as="geometry">
            <mxPoint x="116.5" y="259.5" as="sourcePoint" />
            <mxPoint x="276.5" y="259.5" as="targetPoint" />
          </mxGeometry>
        </mxCell>
        <mxCell id="DmDUVaoj2vSgji043pQU-16" value="Gérer les facultés par annacad" style="ellipse;whiteSpace=wrap;html=1;" vertex="1" parent="1">
          <mxGeometry x="478" y="317" width="138" height="50" as="geometry" />
        </mxCell>
        <mxCell id="DmDUVaoj2vSgji043pQU-18" value="Use" style="endArrow=open;endSize=12;dashed=1;html=1;rounded=0;exitX=1;exitY=1;exitDx=0;exitDy=0;entryX=1;entryY=0.5;entryDx=0;entryDy=0;" edge="1" parent="1" source="DmDUVaoj2vSgji043pQU-2" target="DmDUVaoj2vSgji043pQU-16">
          <mxGeometry width="160" relative="1" as="geometry">
            <mxPoint x="890" y="260" as="sourcePoint" />
            <mxPoint x="1050" y="260" as="targetPoint" />
            <Array as="points">
              <mxPoint x="820" y="341" />
            </Array>
          </mxGeometry>
        </mxCell>
        <mxCell id="DmDUVaoj2vSgji043pQU-20" value="Encadreur&amp;nbsp;" style="shape=umlActor;verticalLabelPosition=bottom;verticalAlign=top;html=1;" vertex="1" parent="1">
          <mxGeometry x="177" y="300" width="30" height="58" as="geometry" />
        </mxCell>
        <mxCell id="DmDUVaoj2vSgji043pQU-21" value="Completer disponibilité" style="ellipse;whiteSpace=wrap;html=1;" vertex="1" parent="1">
          <mxGeometry x="481" y="426" width="140" height="51" as="geometry" />
        </mxCell>
        <mxCell id="DmDUVaoj2vSgji043pQU-22" value="Use" style="endArrow=open;endSize=12;dashed=1;html=1;rounded=0;exitX=1;exitY=0.5;exitDx=0;exitDy=0;entryX=0.957;entryY=0.583;entryDx=0;entryDy=0;entryPerimeter=0;" edge="1" parent="1">
          <mxGeometry width="160" relative="1" as="geometry">
            <mxPoint x="1049" y="147" as="sourcePoint" />
            <mxPoint x="614.98" y="457.73299999999995" as="targetPoint" />
            <Array as="points">
              <mxPoint x="830" y="458" />
            </Array>
          </mxGeometry>
        </mxCell>
        <mxCell id="DmDUVaoj2vSgji043pQU-23" value="" style="endArrow=open;endFill=1;endSize=12;html=1;rounded=0;entryX=0;entryY=0;entryDx=0;entryDy=0;exitX=1;exitY=0.3333333333333333;exitDx=0;exitDy=0;exitPerimeter=0;" edge="1" parent="1" source="DmDUVaoj2vSgji043pQU-20" target="DmDUVaoj2vSgji043pQU-16">
          <mxGeometry width="160" relative="1" as="geometry">
            <mxPoint x="191" y="327" as="sourcePoint" />
            <mxPoint x="481.97" y="331" as="targetPoint" />
          </mxGeometry>
        </mxCell>
        <mxCell id="DmDUVaoj2vSgji043pQU-24" value="Enseignant&lt;div&gt;&lt;br&gt;&lt;/div&gt;" style="shape=umlActor;verticalLabelPosition=bottom;verticalAlign=top;html=1;" vertex="1" parent="1">
          <mxGeometry x="177" y="414" width="30" height="69" as="geometry" />
        </mxCell>
        <mxCell id="DmDUVaoj2vSgji043pQU-26" value="" style="endArrow=open;endFill=1;endSize=12;html=1;rounded=0;exitX=1;exitY=0.3333333333333333;exitDx=0;exitDy=0;exitPerimeter=0;" edge="1" parent="1" source="DmDUVaoj2vSgji043pQU-24" target="DmDUVaoj2vSgji043pQU-21">
          <mxGeometry width="160" relative="1" as="geometry">
            <mxPoint x="318" y="451" as="sourcePoint" />
            <mxPoint x="478" y="451" as="targetPoint" />
          </mxGeometry>
        </mxCell>
      </root>
    </mxGraphModel>
  </diagram>
</mxfile>
